<svg width="40" height="42" viewBox="0 0 40 42" fill="none" xmlns="http://www.w3.org/2000/svg">
<g filter="url(#filter0_d_10_7)">
<rect x="3" y="4" width="32" height="32" fill="#DB8300"/>
<rect x="2.5" y="3.5" width="33" height="33" stroke="#DB8300" stroke-linejoin="round"/>
</g>
<path d="M8.36 34C7.56 34 6.88 33.72 6.32 33.16C5.76 32.6 5.48 31.92 5.48 31.12V25.04L9.2 25.88V28.84C9.2 29.24 9.33333 29.5867 9.6 29.88C9.89333 30.1467 10.24 30.28 10.64 30.28H15.2C15.5733 30.28 15.9067 30.1467 16.2 29.88C16.4933 29.5867 16.64 29.24 16.64 28.84V6H20.32V31.12C20.32 31.92 20.04 32.6 19.48 33.16C18.92 33.72 18.2533 34 17.48 34H8.36ZM17.6847 34V6H29.6847C30.458 6 31.1247 6.28 31.6847 6.84C32.2447 7.4 32.5247 8.08 32.5247 8.88V31.12C32.5247 31.92 32.2447 32.6 31.6847 33.16C31.1247 33.72 30.458 34 29.6847 34H17.6847ZM21.4047 30.28H27.4047C27.778 30.28 28.1114 30.1467 28.4047 29.88C28.698 29.5867 28.8447 29.24 28.8447 28.84V11.16C28.8447 10.76 28.698 10.4267 28.4047 10.16C28.1114 9.86667 27.778 9.72 27.4047 9.72H21.4047V30.28Z" fill="#323330"/>
<defs>
<filter id="filter0_d_10_7" x="0" y="2" width="40" height="40" filterUnits="userSpaceOnUse" color-interpolation-filters="sRGB">
<feFlood flood-opacity="0" result="BackgroundImageFix"/>
<feColorMatrix in="SourceAlpha" type="matrix" values="0 0 0 0 0 0 0 0 0 0 0 0 0 0 0 0 0 0 127 0" result="hardAlpha"/>
<feOffset dx="1" dy="2"/>
<feGaussianBlur stdDeviation="1.5"/>
<feComposite in2="hardAlpha" operator="out"/>
<feColorMatrix type="matrix" values="0 0 0 0 0 0 0 0 0 0 0 0 0 0 0 0 0 0 0.25 0"/>
<feBlend mode="normal" in2="BackgroundImageFix" result="effect1_dropShadow_10_7"/>
<feBlend mode="normal" in="SourceGraphic" in2="effect1_dropShadow_10_7" result="shape"/>
</filter>
</defs>
</svg>
